<svg viewBox="0 0 18 19" width="18px" height="18px" class="ZQ0ciz QmD07Z "><path d="M8.885 4.36C6.377 4.36 4.3 6.45 4.3 9.05c0 2.602 2.042 4.69 4.585 4.69 2.544 0 4.586-2.125 4.586-4.69 0-2.564-2.078-4.69-4.586-4.69zm0 7.695c-1.612 0-2.937-1.356-2.937-3.005 0-1.648 1.325-3.004 2.937-3.004 1.612 0 2.938 1.356 2.938 3.004 0 1.65-1.326 3.005-2.938 3.005zM13.65 5.313a1.05 1.05 0 001.039-1.063 1.05 1.05 0 00-1.04-1.063 1.05 1.05 0 00-1.038 1.063 1.05 1.05 0 001.039 1.063z"></path><path d="M16.336 1.502C15.405.513 14.08 0 12.575 0h-7.38C2.078 0 0 2.125 0 5.313v7.511c0 1.576.502 2.932 1.505 3.92.967.954 2.257 1.43 3.725 1.43h7.309c1.54 0 2.83-.513 3.761-1.43.968-.952 1.47-2.307 1.47-3.883V5.313c0-1.539-.502-2.858-1.434-3.81zm-.143 11.359c0 1.136-.394 2.052-1.039 2.675-.645.623-1.54.952-2.615.952H5.23c-1.074 0-1.97-.33-2.615-.952-.645-.66-.967-1.576-.967-2.712V5.313c0-1.1.322-2.015.967-2.675.61-.623 1.54-.953 2.615-.953h7.38c1.075 0 1.97.33 2.616.99.609.66.967 1.575.967 2.638v7.548z"></path></svg>