<svg viewBox="0 0 36 37" width="36px" height="36px" class="ZQ0ciz FaQMg4 "><path fill-rule="evenodd" clip-rule="evenodd" d="M17.25 24.027c5.385 0 9.75-4.365 9.75-9.75 0-5.384-4.365-9.75-9.75-9.75S7.5 8.893 7.5 14.277c0 5.385 4.365 9.75 9.75 9.75zm0 1.5c6.213 0 11.25-5.036 11.25-11.25 0-6.213-5.037-11.25-11.25-11.25S6 8.064 6 14.277c0 6.214 5.037 11.25 11.25 11.25z"></path><path fill-rule="evenodd" clip-rule="evenodd" d="M16.445 8.96a.9.9 0 011.61 0l1.201 2.404 3.062.612a.9.9 0 01.363 1.603l-2.353 1.765.59 2.95a.9.9 0 01-1.35.946l-2.318-1.412-2.318 1.412a.9.9 0 01-1.35-.945l.59-2.951-2.354-1.765a.9.9 0 01.364-1.603l3.061-.612 1.202-2.404zm.805 1.744l-.797 1.593a.9.9 0 01-.628.48l-2.033.407 1.582 1.187a.9.9 0 01.343.896l-.396 1.98 1.46-.89a.9.9 0 01.937 0l1.46.89-.395-1.98a.9.9 0 01.342-.896l1.583-1.187-2.033-.407a.9.9 0 01-.629-.48l-.796-1.593zM6.902 30.435l2.971-8.164 1.41.513-2.545 6.991 2.958-.999a.9.9 0 011.057.385l1.623 2.666 2.545-6.99 1.41.512-2.972 8.164a.9.9 0 01-1.614.16l-2.024-3.322-3.685 1.245a.9.9 0 01-1.134-1.161zM24.253 22.27l2.971 8.164a.9.9 0 01-1.134 1.16l-3.685-1.244-2.014 3.307a.9.9 0 01-1.627-.198l-1.255-3.992a.75.75 0 011.432-.45l.857 2.73 1.575-2.587a.9.9 0 011.057-.385l2.958 1-2.545-6.992 1.41-.513z"></path></svg>