<svg viewBox="0 0 24 24" class="ZQ0ciz _yh6Wh f3GMGo" width="30px" height="30px" fill="#fff"><path fill-rule="evenodd" clip-rule="evenodd" d="M5.473 2.913c.44-.44 1.152-.44 1.592 0l3.756 3.756c.55.55.55 1.44 0 1.99l-1.484 1.484a14.325 14.325 0 0 0 5.051 4.71l.228.127 1.545-1.235a1.407 1.407 0 0 1 1.813.047l3.554 3.158c.605.538.632 1.474.06 2.047l-1.663 1.663a5.44 5.44 0 0 1-6.098 1.105l-.318-.144A22.49 22.49 0 0 1 2.51 10.816a5.248 5.248 0 0 1 1.027-5.968l1.936-1.935Zm.796 1.857L4.864 6.175a3.372 3.372 0 0 0-.66 3.834 20.614 20.614 0 0 0 10.081 9.904l.318.145a3.564 3.564 0 0 0 3.995-.725l1.312-1.311-2.886-2.565-1.372 1.097c-.512.41-1.221.47-1.794.15l-.38-.21a16.2 16.2 0 0 1-5.871-5.576 1.548 1.548 0 0 1 .218-1.916l1.338-1.338L6.27 4.77Z"></path></svg>