<svg viewBox="0 0 13 17" width="16px" height="16px" class="ZQ0ciz FaQMg4 "><path d="M3.548 6.793h1.01v8.146h-1.01V6.793zM7.005 6.793h-1.01v8.146h1.01V6.793zM8.441 6.793h1.01v8.146h-1.01V6.793z"></path><path fill-rule="evenodd" clip-rule="evenodd" d="M8.88 2.176h1.791c1.154 0 2.093.939 2.093 2.093v1.473h-.7v10.231c0 .566-.462 1.027-1.028 1.027H1.964c-.566 0-1.027-.46-1.027-1.027V5.742H.236V4.269c0-1.154.939-2.093 2.093-2.093H4.12v-.383C4.12.804 4.925 0 5.913 0h1.174C8.076 0 8.88.804 8.88 1.793v.383zM5.913 1.01a.784.784 0 00-.783.783v.383h2.74v-.383a.784.784 0 00-.783-.783H5.913zm5.123 14.98c.01 0 .017-.008.017-.017V5.742H1.947v10.23c0 .01.008.018.017.018h9.072zm.718-11.258v-.463c0-.598-.486-1.083-1.083-1.083H2.329c-.597 0-1.083.485-1.083 1.083v.463h10.508z"></path></svg>