<svg viewBox="0 0 36 36" width="36px" height="36px" class="ZQ0ciz FaQMg4 "><path fill-rule="evenodd" clip-rule="evenodd" d="M5.25 25.5V24a.75.75 0 011.5 0v1.5h3V27h-3a1.5 1.5 0 01-1.5-1.5zM5.25 10.5A1.5 1.5 0 016.75 9h15a1.5 1.5 0 011.5 1.5h3.334a1.5 1.5 0 011.272.705l3.485 5.575 2.72 2.72a1.5 1.5 0 01.439 1.06v4.94A1.5 1.5 0 0133 27h-3.75v-1.5H33v-4.94L30.44 18h-7.19a1.5 1.5 0 01-1.5-1.5v-6h-15v5.25a.75.75 0 01-1.5 0V10.5zm24.147 6L26.584 12H23.25v4.5h6.147zM23.25 27h-7.5v-1.5h7.5V27z"></path><path fill-rule="evenodd" clip-rule="evenodd" d="M19.28 13.244a.75.75 0 01.07 1.058l-4.65 5.315a.9.9 0 01-1.313.044l-2.357-2.356a.75.75 0 011.06-1.061l1.904 1.903 4.228-4.832a.75.75 0 011.058-.071zM7.5 18.75a.75.75 0 01-.75.75h-4.5a.75.75 0 010-1.5h4.5a.75.75 0 01.75.75zM9 21.75a.75.75 0 01-.75.75h-4.5a.75.75 0 010-1.5h4.5a.75.75 0 01.75.75zM26.25 27.75a2.25 2.25 0 100-4.5 2.25 2.25 0 000 4.5zm0 1.5a3.75 3.75 0 100-7.5 3.75 3.75 0 000 7.5zM12.75 27.75a2.25 2.25 0 100-4.5 2.25 2.25 0 000 4.5zm0 1.5a3.75 3.75 0 100-7.5 3.75 3.75 0 000 7.5z"></path></svg>