<svg viewBox="0 0 36 37" width="36px" height="36px" class="ZQ0ciz FaQMg4 "><path fill-rule="evenodd" clip-rule="evenodd" d="M12.867 8.079c-6.005 2.819-8.587 9.97-5.768 15.975 2.818 6.004 9.97 8.586 15.974 5.768 6.005-2.82 8.587-9.971 5.768-15.975A12.013 12.013 0 0027 11.027L27 9.98l1.127.057c.818.933 1.52 1.995 2.072 3.172 3.17 6.754.266 14.8-6.488 17.97-6.754 3.171-14.8.266-17.97-6.488-3.17-6.754-.266-14.8 6.488-17.97a13.451 13.451 0 018.086-1.076c.859.152 1.7.386 2.511.699a.719.719 0 01.385.972.788.788 0 01-1 .398 12.08 12.08 0 00-2.157-.592 11.951 11.951 0 00-7.187.957z"></path><path fill-rule="evenodd" clip-rule="evenodd" d="M25.688 8.828c0-.008.006-.013.013-.012l5.183.864a.75.75 0 11-.247 1.48l-3.45-.576v3.427a.75.75 0 11-1.5 0V8.828zM14.743 14.011h-1.111a1.5 1.5 0 00-1.496 1.386l-.728 9.468a1.5 1.5 0 001.496 1.615h10.192a1.5 1.5 0 001.496-1.615l-.728-9.468a1.5 1.5 0 00-1.496-1.386h-1.111c-.07-1.03-.293-1.955-.707-2.68-.537-.938-1.4-1.538-2.55-1.538s-2.014.6-2.55 1.538c-.414.725-.636 1.65-.707 2.68zm1.504 0h3.506c-.067-.834-.248-1.484-.506-1.936-.307-.538-.71-.782-1.247-.782-.538 0-.94.244-1.247.782-.258.452-.439 1.102-.506 1.937zm-2.615 1.5l-.728 9.47h10.192l-.728-9.47h-8.736zm5.306 3.563a.75.75 0 010 1.5h-1.875a.75.75 0 010-1.5h1.875z"></path></svg>