  <svg viewBox="0 0 173 23" class="ZQ0ciz QmD07Z jpP7kP" width="180px" height="30px" fill='#fff'><path fill-rule="evenodd" clip-rule="evenodd" d="M126.631.127c-3.802 0-6.902 1.838-8.762 4.701l-.041.043c-.041.043-.083.086-.124.171a11.674 11.674 0 00-1.736 6.112v.128c0 6.155 4.422 11.07 10.621 11.07 6.158 0 10.58-4.915 10.58-11.07v-.085c.042-6.112-4.38-11.07-10.538-11.07zm-.002 18.335c-4.009 0-6.695-3.205-6.778-7.18v-.086c0-3.975 2.687-7.223 6.778-7.223 4.091 0 6.736 3.291 6.736 7.223 0 3.933-2.645 7.266-6.736 7.266zM114.314 4.06c-.207-.513-.496-.898-.744-1.283-.289-.299-.62-.64-1.033-.897-.372-.257-.744-.513-1.24-.641-.413-.171-.868-.342-1.405-.428a6.333 6.333 0 00-1.323-.128c-.496-.043-1.074-.043-1.777-.043h-7.976v21.328h3.761v-8.163h4.505c1.405 0 2.644-.171 3.678-.47 1.074-.385 1.901-.855 2.479-1.496.579-.684 1.033-1.41 1.323-2.18.082-.3.165-.556.248-.855.124-.513.165-1.026.206-1.539V7.094c0-.555-.082-1.026-.165-1.581a6.126 6.126 0 00-.537-1.453zm-3.386 4.444a2.022 2.022 0 01-.661.898c-.248.256-.661.47-1.157.598-.538.171-1.24.214-1.984.214h-4.505V4.23h4.422c.579 0 1.075.043 1.447.043.372.042.661.085.826.128h-.041c.289.043.537.17.744.3.207.17.413.341.578.64.166.214.29.513.414.812.082.257.124.641.124.983 0 .513-.083.983-.207 1.368zm40.046 4.829c1.075-.385 1.901-.855 2.521-1.496.579-.684 1.033-1.41 1.281-2.18a5.473 5.473 0 00.372-1.582c.042-.299.042-.555.042-.854v-.129c0-.555-.042-1.025-.166-1.581-.082-.513-.248-.94-.496-1.41a5.398 5.398 0 00-.743-1.283c-.331-.3-.62-.641-1.034-.897-.372-.257-.744-.513-1.198-.642-.455-.17-.951-.341-1.447-.427h.042a6.468 6.468 0 00-1.364-.128c-.496-.043-1.075-.043-1.736-.043h-8.017V22.01h3.802v-8.206h2.025l6.158 8.206h4.67l-6.241-8.335c.579-.085 1.075-.17 1.529-.341zm-3.636-3.119h-4.463V4.23h4.422c.537 0 1.033.043 1.405.043.413.043.661.086.827.128.248.043.537.171.702.3.207.17.455.342.62.64.124.214.248.514.372.813.083.256.124.641.124.983 0 .513-.083.94-.207 1.325a2.287 2.287 0 01-.619.897c-.29.257-.703.47-1.199.599-.537.214-1.198.256-1.984.256zm8.967-9.532v3.547h6.447v17.78h3.761V4.23h6.488V.682h-16.696zm-60.59 11.755c-.29-.47-.703-.855-1.157-1.283a7.013 7.013 0 00-1.653-.94c-.413-.214-.992-.427-1.736-.641a27.665 27.665 0 00-2.686-.684c-1.034-.214-1.819-.513-2.439-.726-.578-.171-.992-.428-1.157-.599h-.041c-.165-.128-.33-.385-.413-.556a2.303 2.303 0 01-.124-.769c0-.3.04-.598.165-.855.124-.256.372-.555.661-.77.29-.213.661-.384 1.157-.555a8.089 8.089 0 011.901-.213c.703 0 1.282.085 1.819.213.496.129.868.385 1.198.641.29.214.579.599.744.983.207.428.372.898.414 1.454l.04.256 3.596.043v-.598c-.041-.642-.124-1.283-.33-1.796a5.259 5.259 0 00-.744-1.624A4.695 4.695 0 0093.73 2.05c-.496-.427-1.033-.726-1.611-.983v.043C91.5.854 90.88.64 90.218.512A11.84 11.84 0 0088.07.34c-.66 0-1.322.043-1.942.17a5.316 5.316 0 00-1.818.556c-.62.214-1.116.556-1.612.898A5.837 5.837 0 0081.54 3.29c-.33.47-.538.94-.662 1.496a5.757 5.757 0 00-.248 1.624c0 .513.083.983.207 1.496.124.47.29.898.579 1.325.248.427.578.812.992 1.154.371.342.785.684 1.322.94v-.042c.372.213.868.47 1.53.684.66.17 1.404.427 2.355.64.868.214 1.612.428 2.19.599.579.128.992.257 1.24.385.372.128.661.299.91.513.206.128.413.299.537.513.165.17.247.384.33.598.083.17.124.427.124.684 0 .214-.041.47-.124.684a1.74 1.74 0 01-.33.684c-.166.17-.373.427-.58.555-.206.171-.536.342-.826.513-.372.085-.702.214-1.115.256-.414.086-.827.086-1.282.086a8.061 8.061 0 01-1.487-.128c-.455-.086-.868-.171-1.282-.385-.413-.17-.702-.427-1.033-.641a3.591 3.591 0 01-.661-.727c-.165-.256-.372-.598-.455-.94a5.011 5.011 0 01-.248-1.24l-.04-.256h-3.596l.04.556c0 .726.084 1.41.29 2.094.165.641.455 1.282.827 1.838a6.607 6.607 0 001.322 1.539c.496.427 1.075.769 1.736 1.11v-.042c.62.3 1.322.513 2.108.684.785.128 1.653.171 2.52.171.745 0 1.447-.043 2.108-.214.662-.128 1.282-.342 1.901-.598.579-.3 1.116-.641 1.57-1.069a7.845 7.845 0 001.2-1.41c.33-.513.578-1.026.743-1.581a8.06 8.06 0 00.207-1.71c0-.599-.083-1.154-.207-1.667 0-.684-.289-1.154-.537-1.624zm-69.059.34h10.87v-3.59h-10.87V4.229H38.27V.68H22.895V22.01h15.457v-3.59H26.656v-5.642zM15.085 1.068l-4.67 14.233c-.124.428-.248.812-.372 1.24H10c-.124-.428-.206-.813-.372-1.24L5.042 1.068 4.918.641H0v21.328h3.678V7.864l4.505 13.677.124.428h3.513l.124-.428 4.504-13.677v14.105h3.678V.683h-4.918l-.123.385zm46.21 9.788H48.153v3.719h8.514c-1.157 2.693-3.348 3.847-5.869 3.847-4.794 0-6.819-3.719-6.819-7.395 0-3.333 1.777-7.223 6.654-7.223 1.033 0 3.885.128 5.496 2.864h4.464C59.105 2.436 55.427 0 50.633 0c-7.315 0-10.621 6.027-10.621 11.198 0 5.172 3.1 11.113 10.662 11.113 6.158 0 8.927-3.761 10.125-7.864.248-1.197.455-2.394.496-3.59zm13.966-1.838l-3.182-7.993-.124-.384h-3.596l-.165.384-7.522 20.132-.29.812h4.01l.124-.428 2.025-5.684h7.397l2.108 5.684.124.428h4.257l-.372-.812L75.26 9.018zm-7.565 3.504l1.28-3.504.58-1.582c.206-.641.454-1.24.62-1.88.371 1.196.785 2.308 1.198 3.462a.62.62 0 01.083.256c.371 1.069.785 2.18 1.198 3.248h-4.96z"></path></svg>
                