<svg viewBox="0 0 36 37" width="36px" height="36px" class="ZQ0ciz FaQMg4 "><path fill-rule="evenodd" clip-rule="evenodd" d="M9 10.6818H25.5C27.1569 10.6818 28.5 12.3172 28.5 14.3347V25.2935C28.5 27.311 27.1569 28.9465 25.5 28.9465H9C7.34315 28.9465 6 27.311 6 25.2935V14.3347C6 12.3172 7.34315 10.6818 9 10.6818ZM9 12.5082C8.17157 12.5082 7.5 13.326 7.5 14.3347V25.2935C7.5 26.3023 8.17157 27.12 9 27.12H25.5C26.3284 27.12 27 26.3023 27 25.2935V14.3347C27 13.326 26.3284 12.5082 25.5 12.5082H9Z"></path><path fill-rule="evenodd" clip-rule="evenodd" d="M21 7.63767C22.2426 7.63767 23.25 6.6155 23.25 5.35459C23.25 4.09367 22.2426 3.0715 21 3.0715C19.7574 3.0715 18.75 4.09367 18.75 5.35459C18.75 6.6155 19.7574 7.63767 21 7.63767ZM21 9.15973C23.0711 9.15973 24.75 7.45611 24.75 5.35459C24.75 3.25306 23.0711 1.54944 21 1.54944C18.9289 1.54944 17.25 3.25306 17.25 5.35459C17.25 7.45611 18.9289 9.15973 21 9.15973Z"></path><path fill-rule="evenodd" clip-rule="evenodd" d="M20.1868 16.7612C20.9667 16.1915 21.88 16.009 22.5 16.009H28.5V17.531H22.5C22.12 17.531 21.5333 17.653 21.0632 17.9964C20.6314 18.312 20.25 18.8445 20.25 19.8141C20.25 20.7837 20.6314 21.3163 21.0632 21.6318C21.5333 21.9753 22.12 22.0972 22.5 22.0972H28.5V23.6193H22.5C21.88 23.6193 20.9667 23.4368 20.1868 22.867C19.3686 22.2693 18.75 21.2798 18.75 19.8141C18.75 18.3484 19.3686 17.3589 20.1868 16.7612Z"></path><path fill-rule="evenodd" clip-rule="evenodd" d="M25.5 19.8141C25.5 20.2344 25.1642 20.5752 24.75 20.5752H23.25C22.8358 20.5752 22.5 20.2344 22.5 19.8141C22.5 19.3938 22.8358 19.0531 23.25 19.0531H24.75C25.1642 19.0531 25.5 19.3938 25.5 19.8141Z"></path><path fill-rule="evenodd" clip-rule="evenodd" d="M13.5 8.39871C12.2574 8.39871 11.25 9.42088 11.25 10.6818H9.75C9.75 8.58027 11.4289 6.87665 13.5 6.87665C15.5711 6.87665 17.25 8.58027 17.25 10.6818H15.75C15.75 9.42088 14.7426 8.39871 13.5 8.39871Z"></path></svg>